<svg xmlns="http://www.w3.org/2000/svg" shape-rendering="crispEdges" viewBox="0 -0.5 64 64" width="64" height="64"><metadata>Generated with pixel-perfect-svg https://github.com/kagof/pixel-perfect-svg</metadata><path stroke="#0f380f" d="M4,0h56M2,1h3M59,1h3M1,2h2M61,2h2M1,3h1M62,3h1M0,4h2M17,4h3M28,4h3M62,4h2M0,5h1M16,5h3M20,5h1M27,5h3M31,5h1M63,5h1M0,6h1M15,6h5M21,6h1M26,6h5M32,6h1M63,6h1M0,7h1M15,7h7M26,7h7M63,7h1M0,8h1M15,8h1M17,8h5M26,8h1M28,8h5M63,8h1M0,9h1M16,9h1M19,9h2M27,9h1M30,9h2M63,9h1M0,10h1M17,10h3M28,10h3M63,10h1M0,11h1M18,11h1M29,11h1M63,11h1M0,12h1M18,12h1M28,12h1M63,12h1M0,13h1M18,13h1M20,13h8M63,13h1M0,14h1M18,14h2M63,14h1M0,15h1M18,15h1M63,15h1M0,16h1M17,16h3M63,16h1M0,17h1M16,17h3M20,17h1M63,17h1M0,18h1M15,18h5M21,18h1M63,18h1M0,19h1M15,19h7M63,19h1M0,20h1M15,20h1M17,20h5M63,20h1M0,21h1M16,21h1M19,21h2M63,21h1M0,22h1M17,22h3M63,22h1M0,23h1M63,23h1M0,24h1M63,24h1M0,25h1M63,25h1M0,26h1M33,26h1M63,26h1M0,27h1M16,27h5M63,27h1M0,28h1M16,28h3M20,28h1M33,28h1M35,28h4M40,28h4M45,28h4M50,28h1M52,28h2M55,28h2M63,28h1M0,29h1M16,29h3M20,29h1M33,29h1M35,29h1M38,29h1M40,29h1M43,29h1M45,29h1M48,29h1M50,29h2M54,29h1M57,29h1M63,29h1M0,30h1M16,30h3M20,30h1M33,30h1M35,30h1M38,30h1M40,30h1M43,30h1M45,30h1M48,30h1M50,30h1M54,30h4M63,30h1M0,31h1M16,31h3M20,31h1M33,31h1M35,31h1M38,31h1M40,31h1M43,31h1M45,31h1M48,31h1M50,31h1M54,31h1M63,31h1M0,32h1M14,32h9M31,32h1M33,32h1M35,32h4M40,32h1M43,32h1M45,32h4M50,32h1M55,32h3M63,32h1M0,33h1M15,33h5M21,33h1M38,33h1M63,33h1M0,34h1M16,34h3M20,34h1M35,34h4M63,34h1M0,35h1M17,35h1M19,35h1M63,35h1M0,36h1M18,36h1M63,36h1M0,37h1M63,37h1M0,38h1M63,38h1M0,39h1M63,39h1M0,40h1M63,40h1M0,41h1M63,41h1M0,42h1M63,42h1M0,43h1M63,43h1M0,44h1M63,44h1M0,45h1M29,45h1M32,45h1M63,45h1M0,46h1M28,46h2M31,46h2M63,46h1M0,47h1M28,47h5M63,47h1M0,48h1M29,48h3M63,48h1M0,49h1M28,49h3M63,49h1M0,50h1M8,50h22M63,50h1M0,51h1M8,51h22M63,51h1M0,52h1M8,52h21M63,52h1M0,53h1M8,53h3M13,53h16M63,53h1M0,54h1M8,54h2M11,54h2M14,54h1M16,54h1M18,54h1M20,54h1M22,54h1M24,54h1M26,54h3M63,54h1M0,55h1M9,55h1M11,55h2M14,55h2M17,55h1M19,55h1M21,55h1M23,55h1M25,55h1M27,55h1M63,55h1M0,56h1M10,56h1M13,56h1M16,56h1M18,56h1M20,56h1M22,56h1M24,56h1M26,56h1M63,56h1M0,57h1M11,57h2M24,57h2M63,57h1M0,58h1M13,58h1M23,58h1M63,58h1M0,59h2M14,59h9M62,59h2M1,60h1M62,60h1M1,61h2M61,61h2M2,62h3M59,62h3M4,63h56"/><path stroke="#306230" d="M5,1h54M3,2h3M58,2h3M2,3h2M60,3h2M2,4h1M61,4h1M1,5h2M61,5h2M1,6h1M62,6h1M1,7h1M62,7h1M1,8h1M16,8h1M27,8h1M62,8h1M1,9h1M17,9h2M28,9h2M62,9h1M1,10h1M62,10h1M1,11h1M62,11h1M1,12h1M62,12h1M1,13h1M62,13h1M1,14h1M62,14h1M1,15h1M62,15h1M1,16h1M62,16h1M1,17h1M62,17h1M1,18h1M62,18h1M1,19h1M62,19h1M1,20h1M16,20h1M62,20h1M1,21h1M17,21h2M62,21h1M1,22h1M62,22h1M1,23h1M62,23h1M1,24h1M62,24h1M1,25h1M62,25h1M1,26h1M62,26h1M1,27h1M62,27h1M1,28h1M62,28h1M1,29h1M62,29h1M1,30h1M62,30h1M1,31h1M62,31h1M1,32h1M62,32h1M1,33h1M62,33h1M1,34h1M62,34h1M1,35h1M62,35h1M1,36h1M62,36h1M1,37h1M62,37h1M1,38h1M62,38h1M1,39h1M62,39h1M1,40h1M62,40h1M1,41h1M16,41h2M19,41h2M62,41h1M1,42h1M15,42h1M18,42h1M21,42h1M62,42h1M1,43h1M15,43h1M18,43h1M21,43h1M62,43h1M1,44h1M18,44h1M62,44h1M1,45h1M18,45h1M62,45h1M1,46h1M18,46h1M62,46h1M1,47h1M18,47h1M62,47h1M1,48h1M18,48h1M62,48h1M1,49h1M18,49h1M62,49h1M1,50h1M62,50h1M1,51h1M62,51h1M1,52h1M62,52h1M1,53h1M62,53h1M1,54h1M15,54h1M17,54h1M19,54h1M21,54h1M23,54h1M25,54h1M62,54h1M1,55h1M16,55h1M18,55h1M20,55h1M22,55h1M24,55h1M26,55h1M62,55h1M1,56h1M14,56h2M17,56h1M19,56h1M21,56h1M23,56h1M25,56h1M62,56h1M1,57h1M13,57h11M62,57h1M1,58h2M14,58h9M61,58h2M2,59h1M61,59h1M2,60h2M60,60h2M3,61h3M58,61h3M5,62h54"/><path stroke="#8bac0f" d="M6,2h52M4,3h56M3,4h14M20,4h8M31,4h30M3,5h13M19,5h1M21,5h6M30,5h1M32,5h29M2,6h13M20,6h1M22,6h4M31,6h1M33,6h29M2,7h13M22,7h4M33,7h29M2,8h13M22,8h4M33,8h29M2,9h14M21,9h6M32,9h30M2,10h15M20,10h8M31,10h31M2,11h16M19,11h10M30,11h32M2,12h16M19,12h9M29,12h33M2,13h16M19,13h1M28,13h34M2,14h16M20,14h42M2,15h16M19,15h43M2,16h15M20,16h42M2,17h14M19,17h1M21,17h41M2,18h13M20,18h1M22,18h40M2,19h13M22,19h40M2,20h13M22,20h40M2,21h14M21,21h41M2,22h15M20,22h42M2,23h60M2,24h60M2,25h60M2,26h31M34,26h28M2,27h14M21,27h41M2,28h14M19,28h1M21,28h12M34,28h1M39,28h1M44,28h1M49,28h1M51,28h1M54,28h1M57,28h5M2,29h14M19,29h1M21,29h12M34,29h1M36,29h2M39,29h1M41,29h2M44,29h1M46,29h2M49,29h1M52,29h2M55,29h2M58,29h4M2,30h14M19,30h1M21,30h12M34,30h1M36,30h2M39,30h1M41,30h2M44,30h1M46,30h2M49,30h1M51,30h3M58,30h4M2,31h14M19,31h1M21,31h12M34,31h1M36,31h2M39,31h1M41,31h2M44,31h1M46,31h2M49,31h1M51,31h3M55,31h7M2,32h12M23,32h8M32,32h1M34,32h1M39,32h1M41,32h2M44,32h1M49,32h1M51,32h4M58,32h4M2,33h13M20,33h1M22,33h16M39,33h23M2,34h14M19,34h1M21,34h14M39,34h23M2,35h15M18,35h1M20,35h42M2,36h16M19,36h43M2,37h60M2,38h60M2,39h60M2,40h60M2,41h14M18,41h1M21,41h41M2,42h13M16,42h2M19,42h2M22,42h40M2,43h13M16,43h2M19,43h2M22,43h40M2,44h16M19,44h43M2,45h16M19,45h10M30,45h2M33,45h29M2,46h16M19,46h9M30,46h1M33,46h29M2,47h16M19,47h9M33,47h29M2,48h16M19,48h10M32,48h30M2,49h16M19,49h9M31,49h31M2,50h6M30,50h32M2,51h6M30,51h32M2,52h6M29,52h33M2,53h6M11,53h2M29,53h33M2,54h6M10,54h1M13,54h1M29,54h33M2,55h7M10,55h1M13,55h1M28,55h34M2,56h8M11,56h2M27,56h35M2,57h9M26,57h36M3,58h10M24,58h37M3,59h11M23,59h38M4,60h56M6,61h52"/></svg>
