<svg xmlns="http://www.w3.org/2000/svg" shape-rendering="crispEdges" viewBox="0 -0.5 64 64" width="64" height="64"><metadata>Generated with pixel-perfect-svg https://github.com/kagof/pixel-perfect-svg</metadata><path stroke="#0f380f" d="M4,0h56M2,1h3M59,1h3M1,2h2M61,2h2M1,3h1M62,3h1M0,4h2M27,4h3M38,4h3M62,4h2M0,5h1M26,5h3M30,5h1M37,5h3M41,5h1M63,5h1M0,6h1M25,6h5M31,6h1M36,6h5M42,6h1M63,6h1M0,7h1M25,7h7M36,7h7M63,7h1M0,8h1M25,8h1M27,8h5M36,8h1M38,8h5M63,8h1M0,9h1M26,9h1M29,9h2M37,9h1M40,9h2M63,9h1M0,10h1M27,10h3M38,10h3M63,10h1M0,11h1M28,11h1M39,11h1M63,11h1M0,12h1M28,12h1M38,12h1M63,12h1M0,13h1M28,13h1M30,13h8M63,13h1M0,14h1M28,14h2M63,14h1M0,15h1M28,15h1M63,15h1M0,16h1M27,16h3M63,16h1M0,17h1M26,17h3M30,17h1M63,17h1M0,18h1M25,18h5M31,18h1M63,18h1M0,19h1M25,19h7M63,19h1M0,20h1M25,20h1M27,20h5M63,20h1M0,21h1M26,21h1M29,21h2M63,21h1M0,22h1M27,22h3M63,22h1M0,23h1M63,23h1M0,24h1M63,24h1M0,25h1M63,25h1M0,26h1M63,26h1M0,27h1M29,27h5M63,27h1M0,28h1M29,28h3M33,28h1M63,28h1M0,29h1M29,29h3M33,29h1M63,29h1M0,30h1M29,30h3M33,30h1M63,30h1M0,31h1M29,31h3M33,31h1M63,31h1M0,32h1M27,32h9M63,32h1M0,33h1M28,33h5M34,33h1M63,33h1M0,34h1M29,34h3M33,34h1M63,34h1M0,35h1M30,35h1M32,35h1M63,35h1M0,36h1M31,36h1M63,36h1M0,37h1M63,37h1M0,38h1M63,38h1M0,39h1M63,39h1M0,40h1M63,40h1M0,41h1M63,41h1M0,42h1M63,42h1M0,43h1M63,43h1M0,44h1M63,44h1M0,45h1M42,45h1M45,45h1M63,45h1M0,46h1M41,46h2M44,46h2M63,46h1M0,47h1M41,47h5M63,47h1M0,48h1M42,48h3M63,48h1M0,49h1M41,49h3M63,49h1M0,50h1M21,50h22M63,50h1M0,51h1M21,51h22M63,51h1M0,52h1M21,52h21M63,52h1M0,53h1M21,53h3M26,53h16M63,53h1M0,54h1M21,54h2M24,54h2M27,54h1M29,54h1M31,54h1M33,54h1M35,54h1M37,54h1M39,54h3M63,54h1M0,55h1M22,55h1M24,55h2M27,55h2M30,55h1M32,55h1M34,55h1M36,55h1M38,55h1M40,55h1M63,55h1M0,56h1M23,56h1M26,56h1M29,56h1M31,56h1M33,56h1M35,56h1M37,56h1M39,56h1M63,56h1M0,57h1M24,57h2M37,57h2M63,57h1M0,58h1M26,58h1M36,58h1M63,58h1M0,59h2M27,59h9M62,59h2M1,60h1M62,60h1M1,61h2M61,61h2M2,62h3M59,62h3M4,63h56"/><path stroke="#306230" d="M5,1h54M3,2h3M58,2h3M2,3h2M60,3h2M2,4h1M61,4h1M1,5h2M61,5h2M1,6h1M62,6h1M1,7h1M62,7h1M1,8h1M26,8h1M37,8h1M62,8h1M1,9h1M27,9h2M38,9h2M62,9h1M1,10h1M62,10h1M1,11h1M62,11h1M1,12h1M62,12h1M1,13h1M62,13h1M1,14h1M62,14h1M1,15h1M62,15h1M1,16h1M62,16h1M1,17h1M62,17h1M1,18h1M62,18h1M1,19h1M62,19h1M1,20h1M26,20h1M62,20h1M1,21h1M27,21h2M62,21h1M1,22h1M62,22h1M1,23h1M62,23h1M1,24h1M62,24h1M1,25h1M62,25h1M1,26h1M62,26h1M1,27h1M62,27h1M1,28h1M62,28h1M1,29h1M62,29h1M1,30h1M62,30h1M1,31h1M62,31h1M1,32h1M62,32h1M1,33h1M62,33h1M1,34h1M62,34h1M1,35h1M62,35h1M1,36h1M62,36h1M1,37h1M62,37h1M1,38h1M62,38h1M1,39h1M62,39h1M1,40h1M62,40h1M1,41h1M29,41h2M32,41h2M62,41h1M1,42h1M28,42h1M31,42h1M34,42h1M62,42h1M1,43h1M28,43h1M31,43h1M34,43h1M62,43h1M1,44h1M31,44h1M62,44h1M1,45h1M31,45h1M62,45h1M1,46h1M31,46h1M62,46h1M1,47h1M31,47h1M62,47h1M1,48h1M31,48h1M62,48h1M1,49h1M31,49h1M62,49h1M1,50h1M62,50h1M1,51h1M62,51h1M1,52h1M62,52h1M1,53h1M62,53h1M1,54h1M28,54h1M30,54h1M32,54h1M34,54h1M36,54h1M38,54h1M62,54h1M1,55h1M29,55h1M31,55h1M33,55h1M35,55h1M37,55h1M39,55h1M62,55h1M1,56h1M27,56h2M30,56h1M32,56h1M34,56h1M36,56h1M38,56h1M62,56h1M1,57h1M26,57h11M62,57h1M1,58h2M27,58h9M61,58h2M2,59h1M61,59h1M2,60h2M60,60h2M3,61h3M58,61h3M5,62h54"/><path stroke="#8bac0f" d="M6,2h52M4,3h56M3,4h24M30,4h8M41,4h20M3,5h23M29,5h1M31,5h6M40,5h1M42,5h19M2,6h23M30,6h1M32,6h4M41,6h1M43,6h19M2,7h23M32,7h4M43,7h19M2,8h23M32,8h4M43,8h19M2,9h24M31,9h6M42,9h20M2,10h25M30,10h8M41,10h21M2,11h26M29,11h10M40,11h22M2,12h26M29,12h9M39,12h23M2,13h26M29,13h1M38,13h24M2,14h26M30,14h32M2,15h26M29,15h33M2,16h25M30,16h32M2,17h24M29,17h1M31,17h31M2,18h23M30,18h1M32,18h30M2,19h23M32,19h30M2,20h23M32,20h30M2,21h24M31,21h31M2,22h25M30,22h32M2,23h60M2,24h60M2,25h60M2,26h60M2,27h27M34,27h28M2,28h27M32,28h1M34,28h28M2,29h27M32,29h1M34,29h28M2,30h27M32,30h1M34,30h28M2,31h27M32,31h1M34,31h28M2,32h25M36,32h26M2,33h26M33,33h1M35,33h27M2,34h27M32,34h1M34,34h28M2,35h28M31,35h1M33,35h29M2,36h29M32,36h30M2,37h60M2,38h60M2,39h60M2,40h60M2,41h27M31,41h1M34,41h28M2,42h26M29,42h2M32,42h2M35,42h27M2,43h26M29,43h2M32,43h2M35,43h27M2,44h29M32,44h30M2,45h29M32,45h10M43,45h2M46,45h16M2,46h29M32,46h9M43,46h1M46,46h16M2,47h29M32,47h9M46,47h16M2,48h29M32,48h10M45,48h17M2,49h29M32,49h9M44,49h18M2,50h19M43,50h19M2,51h19M43,51h19M2,52h19M42,52h20M2,53h19M24,53h2M42,53h20M2,54h19M23,54h1M26,54h1M42,54h20M2,55h20M23,55h1M26,55h1M41,55h21M2,56h21M24,56h2M40,56h22M2,57h22M39,57h23M3,58h23M37,58h24M3,59h24M36,59h25M4,60h56M6,61h52"/></svg>
